<?xml version="1.0" encoding="UTF-8"?>
<svg xmlns="http://www.w3.org/2000/svg" xmlns:xlink="http://www.w3.org/1999/xlink" width="260px" height="184px" viewBox="0 0 260 184" version="1.1">
<g id="surface1">
<path style=" stroke:none;fill-rule:nonzero;fill:rgb(38.039216%,85.490196%,98.431373%);fill-opacity:1;" d="M 205.722656 91.644531 C 205.722656 81.597656 193.160156 72.082031 173.902344 66.175781 C 178.347656 46.515625 176.375 30.878906 167.667969 25.871094 C 165.660156 24.695312 163.320312 24.140625 160.757812 24.140625 L 160.757812 31.03125 C 162.175781 31.03125 163.320312 31.308594 164.273438 31.835938 C 168.46875 34.246094 170.289062 43.425781 168.871094 55.234375 C 168.53125 58.136719 167.976562 61.199219 167.300781 64.324219 C 161.25 62.839844 154.644531 61.691406 147.703125 60.949219 C 143.535156 55.234375 139.210938 50.039062 134.863281 45.496094 C 144.921875 36.132812 154.367188 31.003906 160.785156 31.003906 L 160.785156 24.105469 C 152.300781 24.105469 141.1875 30.167969 129.953125 40.675781 C 118.71875 30.230469 107.609375 24.230469 99.121094 24.230469 L 99.121094 31.125 C 105.511719 31.125 114.984375 36.226562 125.046875 45.53125 C 120.726562 50.074219 116.402344 55.234375 112.296875 60.949219 C 105.324219 61.691406 98.722656 62.839844 92.671875 64.351562 C 91.960938 61.261719 91.433594 58.261719 91.066406 55.386719 C 89.613281 43.582031 91.40625 34.398438 95.574219 31.960938 C 96.5 31.40625 97.703125 31.15625 99.121094 31.15625 L 99.121094 24.265625 C 96.527344 24.265625 94.183594 24.820312 92.144531 25.996094 C 83.472656 31.003906 81.527344 46.609375 86.003906 66.207031 C 66.804688 72.144531 54.308594 81.628906 54.308594 91.644531 C 54.308594 101.6875 66.867188 111.210938 86.125 117.113281 C 81.679688 136.773438 83.660156 152.414062 92.363281 157.421875 C 94.367188 158.59375 96.714844 159.152344 99.304688 159.152344 C 107.796875 159.152344 118.90625 153.089844 130.140625 142.582031 C 141.375 153.03125 152.484375 159.027344 160.972656 159.027344 C 163.5625 159.027344 165.910156 158.46875 167.945312 157.296875 C 176.617188 152.289062 178.5625 136.675781 174.089844 117.085938 C 193.222656 111.179688 205.722656 101.660156 205.722656 91.644531 Z M 165.539062 71.027344 C 164.398438 75.011719 162.980469 79.125 161.375 83.234375 C 160.109375 80.761719 158.777344 78.292969 157.332031 75.820312 C 155.90625 73.347656 154.398438 70.9375 152.886719 68.589844 C 157.269531 69.234375 161.492188 70.039062 165.539062 71.027344 Z M 151.40625 103.945312 C 148.996094 108.121094 146.527344 112.078125 143.964844 115.753906 C 139.367188 116.15625 134.703125 116.371094 130.015625 116.371094 C 125.351562 116.371094 120.695312 116.15625 116.125 115.785156 C 113.5625 112.105469 111.066406 108.179688 108.65625 104.035156 C 106.308594 99.988281 104.183594 95.882812 102.238281 91.738281 C 104.152344 87.597656 106.308594 83.453125 108.628906 79.402344 C 111.035156 75.234375 113.503906 71.277344 116.0625 67.597656 C 120.664062 67.195312 125.324219 66.976562 130.015625 66.976562 C 134.675781 66.976562 139.335938 67.195312 143.902344 67.566406 C 146.464844 71.242188 148.964844 75.171875 151.371094 79.3125 C 153.71875 83.359375 155.847656 87.472656 157.789062 91.613281 C 155.847656 95.757812 153.71875 99.898438 151.40625 103.945312 Z M 161.375 99.929688 C 163.042969 104.070312 164.460938 108.210938 165.632812 112.230469 C 161.589844 113.21875 157.332031 114.050781 152.914062 114.703125 C 154.425781 112.320312 155.941406 109.882812 157.359375 107.375 C 158.777344 104.902344 160.109375 102.402344 161.375 99.929688 Z M 130.078125 132.90625 C 127.207031 129.941406 124.335938 126.632812 121.496094 123.015625 C 124.273438 123.140625 127.117188 123.230469 129.984375 123.230469 C 132.882812 123.230469 135.753906 123.167969 138.566406 123.015625 C 135.789062 126.632812 132.917969 129.941406 130.078125 132.90625 Z M 107.113281 114.703125 C 102.730469 114.050781 98.507812 113.25 94.460938 112.257812 C 95.601562 108.273438 97.019531 104.160156 98.625 100.050781 C 99.890625 102.523438 101.222656 104.996094 102.667969 107.46875 C 104.121094 109.945312 105.601562 112.355469 107.113281 114.703125 Z M 129.921875 50.378906 C 132.792969 53.351562 135.664062 56.65625 138.503906 60.273438 C 135.726562 60.148438 132.882812 60.054688 130.015625 60.054688 C 127.117188 60.054688 124.246094 60.117188 121.433594 60.273438 C 124.210938 56.65625 127.082031 53.351562 129.921875 50.378906 Z M 107.085938 68.589844 C 105.574219 70.964844 104.058594 73.410156 102.640625 75.910156 C 101.222656 78.386719 99.890625 80.859375 98.625 83.332031 C 96.957031 79.1875 95.539062 75.046875 94.367188 71.027344 C 98.410156 70.070312 102.667969 69.234375 107.085938 68.589844 Z M 79.152344 107.285156 C 68.230469 102.617188 61.15625 96.5 61.15625 91.644531 C 61.15625 86.792969 68.230469 80.640625 79.152344 76.003906 C 81.804688 74.859375 84.707031 73.839844 87.703125 72.882812 C 89.460938 78.941406 91.773438 85.25 94.644531 91.707031 C 91.808594 98.132812 89.523438 104.410156 87.792969 110.4375 C 84.738281 109.480469 81.839844 108.425781 79.152344 107.285156 Z M 95.757812 151.453125 C 91.558594 149.039062 89.738281 139.863281 91.15625 128.058594 C 91.496094 125.148438 92.054688 122.089844 92.734375 118.96875 C 98.785156 120.453125 105.386719 121.59375 112.332031 122.335938 C 116.496094 128.058594 120.816406 133.246094 125.171875 137.789062 C 115.109375 147.15625 105.664062 152.289062 99.242188 152.289062 C 97.855469 152.253906 96.679688 151.976562 95.757812 151.453125 Z M 168.960938 127.898438 C 170.414062 139.707031 168.628906 148.886719 164.460938 151.332031 C 163.535156 151.886719 162.328125 152.136719 160.910156 152.136719 C 154.519531 152.136719 145.046875 147.03125 134.980469 137.730469 C 139.304688 133.183594 143.625 128.023438 147.730469 122.308594 C 154.707031 121.566406 161.3125 120.417969 167.359375 118.90625 C 168.070312 122.03125 168.628906 125.023438 168.960938 127.898438 Z M 180.847656 107.285156 C 178.195312 108.425781 175.292969 109.445312 172.296875 110.40625 C 170.539062 104.347656 168.226562 98.042969 165.355469 91.582031 C 168.191406 85.152344 170.476562 78.878906 172.207031 72.851562 C 175.261719 73.8125 178.160156 74.859375 180.878906 76.003906 C 191.804688 80.671875 198.871094 86.792969 198.871094 91.644531 C 198.84375 96.5 191.769531 102.648438 180.847656 107.285156 Z M 99.089844 24.230469 Z M 99.089844 24.230469 "/>
<path style=" stroke:none;fill-rule:nonzero;fill:rgb(38.039216%,85.490196%,98.431373%);fill-opacity:1;" d="M 144.089844 91.644531 C 144.089844 99.445312 137.773438 105.769531 129.984375 105.769531 C 122.195312 105.769531 115.882812 99.445312 115.882812 91.644531 C 115.882812 83.84375 122.195312 77.519531 129.984375 77.519531 C 137.773438 77.519531 144.089844 83.84375 144.089844 91.644531 Z M 144.089844 91.644531 "/>
</g>
</svg>
